<svg width="379" height="39" viewBox="0 0 379 39" fill="none" xmlns="http://www.w3.org/2000/svg">
<path d="M19.3863 18.4391C19.4218 20.4171 18.7965 22.3503 17.6092 23.9326C16.584 25.3722 15.1727 26.4924 13.5381 27.1641C11.7719 27.8217 9.89728 28.1397 8.013 28.1012C5.30779 28.0538 2.64735 27.4024 0.226173 26.1946L0 25.8715C0.411163 23.7975 0.584605 21.6834 0.516968 19.5702L0.710831 19.4086H1.93863L2.10018 19.6025V20.0549C2.11137 20.9853 2.18694 21.9139 2.32636 22.8339C2.91114 23.7685 3.76811 24.5015 4.78195 24.9344C5.96055 25.5447 7.26739 25.8659 8.59459 25.8715C9.62073 25.9745 10.655 25.783 11.5762 25.3194C12.4975 24.8559 13.2677 24.1395 13.7966 23.254C14.2644 22.4026 14.5089 21.4465 14.5074 20.475C14.5585 19.7642 14.3948 19.0545 14.0376 18.4379C13.6804 17.8214 13.1461 17.3264 12.5042 17.0173C11.4785 16.5617 10.3886 16.2674 9.27311 16.1448C6.94499 15.9618 4.67939 15.3019 2.61715 14.2059C1.79895 13.5547 1.151 12.7146 0.728912 11.7577C0.306828 10.8009 0.123224 9.75589 0.193863 8.71246C0.135291 7.53849 0.339904 6.36627 0.792731 5.28159C1.24556 4.19691 1.93514 3.2272 2.81101 2.44343C4.98952 0.718084 7.72694 -0.144658 10.5009 0.0198424C12.9704 -0.0761327 15.4277 0.410966 17.6738 1.44168V1.89409C17.3296 3.68376 17.1458 5.50058 17.1246 7.32293L16.8984 7.48451H15.8321L15.6706 7.32293C15.6706 5.80415 15.6706 4.8024 15.4767 4.34999C14.9498 3.65341 14.2311 3.12561 13.4089 2.83121C12.3846 2.4062 11.2868 2.18661 10.1778 2.18492C8.71749 2.10523 7.28262 2.5913 6.1713 3.54213C5.72494 3.95229 5.37039 4.45226 5.13094 5.00919C4.89149 5.56612 4.77256 6.16742 4.78195 6.77359C4.72748 7.40524 4.84608 8.0398 5.12501 8.60913C5.40395 9.17846 5.83268 9.66103 6.36517 10.005C7.88818 10.6971 9.51466 11.1337 11.1794 11.2976L13.4089 11.6531C14.1121 11.7787 14.8038 11.9625 15.4767 12.2024C16.6424 12.6144 17.6486 13.3832 18.3524 14.3998C19.072 15.6214 19.4305 17.022 19.3863 18.4391Z" fill="white"/>
<path d="M53.183 10.6187L52.9892 10.8126C52.51 10.7981 52.0312 10.8525 51.5675 10.9742C51.3615 11.0666 51.1832 11.2114 51.0506 11.3942C50.7277 12.0057 50.4575 12.6435 50.2428 13.3008C49.7904 14.5611 49.3058 15.886 48.8534 17.2432L46.6563 23.7061C46.4625 24.2554 46.3009 24.8694 46.107 25.5803L45.5901 27.3576H42.359L40.2912 22.2843L37.254 15.272C35.5415 19.0528 34.0875 22.6397 32.7305 25.8712L32.0843 27.4546H29.0794C28.9298 26.989 28.8111 26.514 28.724 26.0327C28.5995 25.4096 28.4376 24.7945 28.2393 24.1908L25.396 14.3026C24.976 12.8161 24.6852 11.9113 24.5236 11.5235C24.4236 11.3024 24.2532 11.1205 24.039 11.0065C23.437 10.8567 22.8172 10.7915 22.1973 10.8126L22.0034 10.6187V9.48769L22.2296 9.2938H27.1085H32.3105L32.5043 9.48769V10.6187L32.3105 10.7803C31.656 10.6995 30.994 10.6995 30.3395 10.7803C30.1995 10.7885 30.068 10.85 29.9719 10.9522C29.8757 11.0543 29.8223 11.1894 29.8226 11.3296C29.8419 11.713 29.907 12.0927 30.0164 12.4606L32.3105 21.3471L36.8662 11.2327L37.8679 8.80908H39.8065L45.2347 21.3471L47.0764 15.6921C47.5944 14.3828 47.9524 13.0157 48.1426 11.6204C48.1569 11.4975 48.1337 11.373 48.0761 11.2634C48.0184 11.1539 47.929 11.0643 47.8195 11.0065C47.114 10.8926 46.4015 10.8278 45.687 10.8126L45.4931 10.6187V9.52L45.7193 9.2938H49.6612H52.8923L53.0861 9.48769L53.183 10.6187Z" fill="white"/>
<path d="M71.0831 27.0674V27.2612C70.0169 27.2612 68.8214 27.2612 67.432 27.2612C66.0427 27.2612 65.3318 27.2612 64.3625 27.2612L64.1687 27.0674L64.3625 24.5145L60.6791 27.3259C60.3078 27.5792 59.8685 27.7144 59.419 27.7136H58.6759C58.0778 27.7545 57.478 27.6627 56.9195 27.4448C56.3609 27.227 55.8574 26.8884 55.4448 26.4534C54.6486 25.4704 54.2456 24.2267 54.314 22.9634C54.2356 22.1608 54.3671 21.3516 54.6956 20.6152C55.0242 19.8787 55.5384 19.2403 56.188 18.7625C58.7581 17.5031 61.5213 16.6839 64.3625 16.3389C64.4574 15.5839 64.3589 14.8171 64.0764 14.1106C63.7938 13.4041 63.3364 12.7809 62.747 12.2996C62.0545 11.8851 61.2599 11.6724 60.453 11.6856C59.6311 11.629 58.8135 11.8448 58.1266 12.2996L57.3835 14.0446H57.1573L56.188 13.8184V13.5599V11.3302C57.5599 10.1545 59.1527 9.26458 60.873 8.71268C61.4424 8.65567 62.0161 8.65567 62.5855 8.71268C63.5551 8.62316 64.5324 8.75396 65.4444 9.0953C66.3564 9.43663 67.1794 9.97968 67.8521 10.6839C68.7192 11.9659 69.129 13.5027 69.0152 15.0463C69.0152 15.5311 69.0152 16.3066 69.0152 17.373C69.0152 19.118 69.0152 20.3136 69.0152 20.8953C69.0152 22.8018 69.0152 24.1267 69.0152 24.5468C69.0146 24.7364 69.0546 24.924 69.1326 25.0968C69.2107 25.2696 69.3249 25.4237 69.4676 25.5486C69.9784 25.7653 70.5282 25.8752 71.0831 25.8717V27.0674ZM64.2333 22.6403V17.987C62.7506 18.2117 61.3183 18.6929 60.0006 19.4088C59.6338 19.6925 59.3419 20.0617 59.1504 20.4842C58.9589 20.9066 58.8737 21.3695 58.9021 21.8324C58.9021 23.5451 59.6775 24.3852 61.1638 24.3852C61.7844 24.3937 62.3959 24.2364 62.9355 23.9297C63.475 23.6229 63.923 23.1778 64.2333 22.6403Z" fill="white"/>
<path d="M93.2158 10.6512H93.0219C92.704 10.6102 92.3809 10.6544 92.0857 10.7793C91.7905 10.9043 91.5337 11.1054 91.3418 11.3621C91.1479 11.6529 90.7279 12.59 89.9847 14.1411C88.3369 17.7604 86.9475 20.8949 85.8813 23.577L82.8118 31.1063C82.1915 32.9748 81.1527 34.6769 79.7746 36.0827C78.7564 37.0205 77.41 37.5197 76.0266 37.4722C75.0846 37.4657 74.1564 37.2447 73.3125 36.826C73.5494 35.9211 73.7756 34.6609 73.991 33.0451H74.4757C74.7721 33.4837 75.1716 33.8427 75.6392 34.0906C76.1068 34.3385 76.6282 34.4678 77.1574 34.467C78.4822 34.467 79.6777 33.1744 80.8085 30.5569L81.584 28.7473L75.445 12.9455C75.2632 12.3054 74.9308 11.7182 74.4757 11.2328C73.9427 10.9427 73.3349 10.8189 72.7309 10.8774L72.537 10.6835V9.48783L72.7309 9.29395H77.3836H82.5533L82.7472 9.48783V10.6188L82.5533 10.8127C81.0993 10.8127 80.3885 11.0712 80.3885 11.5883C80.401 11.8779 80.4667 12.1627 80.5824 12.4285L81.4871 15.0136L84.2658 22.3167L85.9459 18.342C86.9894 16.1488 87.8015 13.8529 88.3692 11.4913C88.3692 11.0389 87.6584 10.8127 86.1721 10.8127L85.9782 10.6188V9.48783L86.2044 9.29395H89.9201H93.1511L93.3773 9.48783L93.2158 10.6512Z" fill="white"/>
<path d="M111.083 27.0673L110.857 27.2611C109.791 27.2611 108.596 27.2611 107.206 27.2611C105.817 27.2611 105.106 27.2611 103.975 27.2611L103.781 27.0673L103.975 24.5144L100.292 27.3258C99.9204 27.5791 99.4811 27.7143 99.0316 27.7135H98.2885C97.6906 27.7521 97.0915 27.6593 96.5333 27.4416C95.9751 27.2239 95.4714 26.8865 95.0574 26.4533C94.2612 25.4703 93.8582 24.2266 93.9266 22.9633C93.8482 22.1607 93.9797 21.3515 94.3083 20.6151C94.6368 19.8786 95.151 19.2402 95.8006 18.7624C98.3707 17.503 101.134 16.6838 103.975 16.3388C104.07 15.5838 103.972 14.817 103.689 14.1105C103.406 13.404 102.949 12.7808 102.36 12.2995C101.693 11.9104 100.934 11.7094 100.162 11.7178C99.3407 11.6613 98.5231 11.877 97.8361 12.3318L97.1253 14.0768H96.8668L95.8975 13.8506V13.5921V11.3624C97.2694 10.1867 98.8622 9.2968 100.583 8.74491C101.163 8.68659 101.747 8.68659 102.327 8.74491C103.3 8.64629 104.282 8.76954 105.2 9.10537C106.117 9.44121 106.947 9.98088 107.626 10.6838C108.493 11.9658 108.903 13.5027 108.789 15.0462C108.789 15.531 108.789 16.3065 108.789 17.3729C108.789 19.1179 108.789 20.3135 108.789 20.8952C108.789 22.8017 108.789 24.1266 108.789 24.5467C108.789 24.7363 108.829 24.9239 108.907 25.0967C108.985 25.2695 109.099 25.4236 109.242 25.5485C109.78 25.741 110.352 25.818 110.922 25.7747L111.116 26.0009L111.083 27.0673ZM104.137 22.6402V17.9869C102.654 18.2116 101.222 18.6928 99.904 19.4087C99.5431 19.6959 99.2574 20.0666 99.0716 20.4888C98.8859 20.911 98.8056 21.3721 98.8378 21.8323C98.8378 23.545 99.5809 24.3852 101.067 24.3852C101.688 24.3936 102.299 24.2363 102.839 23.9296C103.378 23.6228 103.826 23.1777 104.137 22.6402Z" fill="white"/>
<path d="M145.559 27.0672L145.397 27.2934C144.106 27.2221 142.811 27.2221 141.52 27.2934C140.444 27.2287 139.365 27.2287 138.289 27.2934L138.03 26.938C138.224 23.7712 138.321 21.4768 138.321 20.055V18.3423C138.364 17.0905 138.31 15.8373 138.16 14.5938C137.984 13.9472 137.611 13.3713 137.093 12.9458C136.538 12.4704 135.82 12.2273 135.09 12.2672C134.226 12.2345 133.379 12.5093 132.699 13.0427C132.404 13.293 132.167 13.605 132.005 13.9567C131.843 14.3084 131.76 14.6913 131.762 15.0785V20.572V23.545C131.746 24.0924 131.823 24.6386 131.988 25.1607C131.988 25.1607 132.247 25.4192 132.505 25.5161C133.133 25.6717 133.77 25.7904 134.412 25.8716L134.605 26.0655V27.1965L134.379 27.4227C132.861 27.4227 131.148 27.4227 129.727 27.4227C128.305 27.4227 126.14 27.4227 124.751 27.4227L124.525 27.1965V25.8716H124.718L126.366 25.6454C126.592 25.6454 126.754 25.4192 126.851 25.0961C126.936 24.3985 126.936 23.6932 126.851 22.9956V16.8558C126.888 15.8438 126.779 14.8317 126.528 13.8506C126.337 13.3513 125.984 12.9303 125.526 12.655C124.999 12.3417 124.394 12.1848 123.781 12.2026C123.274 12.1844 122.769 12.276 122.301 12.4712C121.832 12.6664 121.412 12.9606 121.067 13.3336C120.81 13.5705 120.621 13.8716 120.518 14.2061C120.463 14.6784 120.463 15.1555 120.518 15.6279V19.6026C120.518 20.4104 120.518 21.4445 120.518 22.834C120.475 23.609 120.475 24.3857 120.518 25.1607C120.518 25.4192 120.809 25.5808 121.164 25.6777C121.69 25.7472 122.222 25.7472 122.748 25.6777V25.8716V27.0349V27.2288C121.649 27.2288 120.066 27.2288 117.933 27.2288C115.801 27.2288 113.959 27.2288 112.764 27.2288L112.57 27.0349V25.8716H113.087C113.852 25.9095 114.618 25.811 115.348 25.5808C115.575 25.5808 115.736 25.1607 115.736 24.676C115.736 23.0279 115.736 21.4445 115.736 19.3764V16.5973C115.832 15.1367 115.734 13.6698 115.445 12.2349C115.359 12.0959 115.24 11.9794 115.1 11.8952C114.959 11.8109 114.801 11.7612 114.638 11.7501L113.087 11.6532V11.4593V10.4252V10.199C115.528 9.9507 117.934 9.43044 120.26 8.64795L120.68 8.87415V11.8794L123.911 9.16498C124.602 8.86214 125.353 8.71857 126.108 8.74489C127.282 8.67648 128.453 8.92186 129.5 9.45581C130.404 10.0477 131.086 10.9228 131.439 11.944L134.864 9.16498C135.579 8.86495 136.35 8.72171 137.126 8.74489C138.138 8.64219 139.158 8.83846 140.059 9.30942C140.961 9.78038 141.705 10.5054 142.198 11.3947C142.694 12.5224 142.916 13.7517 142.845 14.9816C142.845 15.6602 142.845 16.1449 142.845 16.4681V17.179C142.845 17.793 142.845 18.2131 142.845 18.4069V20.8629C142.845 22.7694 142.845 24.0943 142.845 24.5144C142.848 24.7034 142.89 24.8897 142.968 25.0619C143.045 25.2342 143.157 25.3887 143.297 25.5161C143.964 25.7829 144.68 25.9041 145.397 25.8716L145.591 26.0978L145.559 27.0672Z" fill="white"/>
<path d="M167.594 10.6512L167.401 10.845C166.892 10.8565 166.39 10.9549 165.914 11.1359C165.624 11.3492 165.4 11.6405 165.268 11.9761C164.737 13.0269 164.262 14.1056 163.846 15.2075L160.228 23.4154L158.58 27.487H155.349C154.638 25.4835 153.863 23.4477 153.022 21.3796L149.565 12.9455C149.178 11.8791 148.725 11.2651 148.241 11.1036C147.873 10.9908 147.493 10.9257 147.11 10.9097L146.916 10.7158V9.48783L147.11 9.29395H152.182H156.738L156.932 9.48783V10.6188L156.738 10.8127C156.132 10.8165 155.526 10.8706 154.929 10.9743C154.809 10.9971 154.701 11.0615 154.624 11.1561C154.548 11.2507 154.507 11.3695 154.509 11.4913C155.146 13.7562 155.923 15.9794 156.835 18.1481C157.643 20.3455 158.192 21.7027 158.451 22.2521C159.258 20.3778 160.034 18.5036 160.745 16.694C161.522 15.0255 162.129 13.2824 162.554 11.4913C162.558 11.3739 162.521 11.2587 162.451 11.1648C162.38 11.0708 162.28 11.0036 162.166 10.9743C161.549 10.8507 160.922 10.7858 160.292 10.7804L160.098 10.6188V9.48783L160.292 9.29395H163.75H167.401L167.594 9.48783V10.6512Z" fill="white"/>
<path d="M185.43 27.0675L185.236 27.2614C184.17 27.2614 182.942 27.2614 181.585 27.2614C180.228 27.2614 179.485 27.2614 178.354 27.2614L178.192 27.0675L178.354 24.5147L174.703 27.326C174.331 27.5794 173.892 27.7146 173.443 27.7138H172.667C172.069 27.7569 171.468 27.6662 170.91 27.4482C170.351 27.2302 169.847 26.8904 169.436 26.4535C168.626 25.4783 168.221 24.2289 168.305 22.9636C168.227 22.161 168.359 21.3518 168.687 20.6153C169.016 19.8789 169.53 19.2405 170.179 18.7627C172.737 17.5016 175.49 16.6822 178.322 16.3391C178.42 15.5869 178.327 14.8219 178.05 14.1156C177.773 13.4092 177.322 12.7845 176.738 12.2998C176.05 11.9069 175.269 11.706 174.477 11.7181C173.645 11.6684 172.82 11.8834 172.118 12.3321L171.407 14.0771H171.181L170.212 13.8509V13.5924V11.3626C171.579 10.1804 173.173 9.28969 174.897 8.74517C175.466 8.6852 176.04 8.6852 176.609 8.74517C177.587 8.64151 178.575 8.76227 179.499 9.09825C180.423 9.43424 181.258 9.9766 181.94 10.684C182.808 11.966 183.217 13.5029 183.104 15.0465C183.104 15.5312 183.104 16.3068 183.104 17.3732C183.104 19.1181 183.104 20.3138 183.104 20.8954C183.104 22.802 183.104 24.1269 183.104 24.547C183.104 24.9671 183.297 25.4195 183.556 25.5487C184.083 25.7395 184.645 25.8166 185.204 25.7749L185.398 26.0011L185.43 27.0675ZM178.483 22.6404V17.9871C177.008 18.2184 175.585 18.7108 174.283 19.4413C173.912 19.7211 173.617 20.0896 173.425 20.513C173.233 20.9364 173.15 21.4012 173.184 21.8649C173.184 23.5776 173.927 24.4177 175.446 24.4177C176.066 24.424 176.675 24.262 177.21 23.949C177.745 23.636 178.185 23.1838 178.483 22.6404Z" fill="white"/>
<path d="M201.391 8.87359V12.105C201.391 12.6544 201.391 13.2684 201.391 13.9793L200.325 14.3994C200.057 13.9873 199.687 13.6516 199.251 13.4251C198.815 13.1986 198.328 13.0889 197.837 13.1068C197.388 13.103 196.945 13.2032 196.541 13.3994C196.138 13.5956 195.785 13.8825 195.511 14.2378C195.087 14.8407 194.882 15.5704 194.929 16.3059V20.733C194.929 21.6702 194.929 22.9304 194.929 24.5785C194.929 25.0309 194.929 25.354 195.349 25.4833C196.204 25.6988 197.085 25.7967 197.966 25.7741H198.16V26.9374L197.966 27.1313C196.125 27.1313 194.283 27.1313 192.441 27.1313C190.6 27.1313 188.467 27.1313 187.272 27.1313L187.401 27.099V25.8711C188.166 25.909 188.932 25.8105 189.663 25.5802C189.889 25.5802 190.05 25.1601 190.083 24.6754C190.083 23.0274 190.083 21.444 190.083 19.3758V16.5968C190.179 15.1362 190.081 13.6692 189.792 12.2343C189.71 12.0915 189.592 11.972 189.451 11.8872C189.309 11.8024 189.149 11.755 188.984 11.7496L187.401 11.6526V11.4588V10.4247V10.1985C189.842 9.95014 192.248 9.42988 194.574 8.64739L194.994 8.87359V12.5898C195.769 11.685 196.706 10.6186 197.805 9.35831C198.089 9.09114 198.425 8.88461 198.791 8.75128C199.158 8.61795 199.548 8.56062 199.937 8.58276C200.435 8.59406 200.927 8.69249 201.391 8.87359Z" fill="white"/>
<path d="M228.522 9.7591C228.294 11.689 228.207 13.6331 228.264 15.5757V24.3653C228.443 27.4099 228.082 30.4622 227.198 33.3811C226.88 34.4329 226.336 35.4027 225.605 36.2231C224.874 37.0435 223.973 37.6946 222.965 38.1313C222.242 38.4055 221.476 38.5478 220.703 38.5514H219.992L219.572 37.1942L219.734 36.9356H220.316C220.918 36.9649 221.512 36.7797 221.991 36.413C222.47 36.0462 222.804 35.5216 222.933 34.9321C223.455 31.7289 223.639 28.4796 223.482 25.2378V17.4823C223.545 16.0672 223.47 14.6493 223.256 13.2491C223.228 13.065 223.14 12.8953 223.006 12.7666C222.871 12.6379 222.698 12.5576 222.513 12.5382H220.768H220.574V11.4718L220.768 11.2456C223.315 10.9757 225.821 10.4006 228.232 9.5329L228.522 9.7591ZM228.522 3.29619C228.527 3.68236 228.452 4.06529 228.302 4.42111C228.151 4.77693 227.93 5.09801 227.65 5.36432C227.392 5.64634 227.078 5.87007 226.727 6.02053C226.375 6.171 225.996 6.24474 225.615 6.23681C225.228 6.24123 224.846 6.16604 224.49 6.01593C224.134 5.86581 223.813 5.644 223.547 5.36432C223.277 5.09192 223.064 4.76899 222.92 4.41408C222.776 4.05916 222.704 3.67926 222.707 3.29619C222.699 2.51268 223.001 1.75782 223.547 1.19575C223.812 0.919127 224.131 0.699023 224.483 0.548666C224.836 0.398308 225.215 0.320801 225.598 0.320801C225.982 0.320801 226.361 0.398308 226.714 0.548666C227.066 0.699023 227.385 0.919127 227.65 1.19575C227.959 1.45264 228.208 1.77345 228.381 2.13607C228.554 2.49868 228.646 2.89448 228.652 3.29619H228.522Z" fill="white"/>
<path d="M250.429 17.4499V18.387L250.203 18.6778C248.033 19.1866 245.807 19.4146 243.579 19.3564H239.088C239.1 21.0401 239.707 22.6653 240.8 23.9451C241.343 24.5746 242.019 25.0752 242.779 25.4106C243.539 25.746 244.364 25.9077 245.195 25.884C246.711 25.7976 248.189 25.3783 249.524 24.656L249.977 25.2054L249.137 27.0796C247.353 28.224 245.278 28.8299 243.159 28.8246C241.977 28.8764 240.797 28.6916 239.687 28.2809C238.577 27.8703 237.561 27.2421 236.697 26.4333C235.869 25.5052 235.234 24.4214 234.829 23.2452C234.424 22.069 234.257 20.824 234.338 19.5827C234.187 18.3071 234.319 17.0137 234.727 15.7957C235.135 14.5776 235.808 13.465 236.697 12.5381C238.497 10.9574 240.769 10.0147 243.159 9.85597C244.123 9.79898 245.089 9.94178 245.995 10.2754C246.901 10.6091 247.729 11.1263 248.426 11.7948C249.795 13.3528 250.512 15.3776 250.429 17.4499ZM245.485 16.9329C245.485 13.5398 244.419 11.8272 242.254 11.8272C240.09 11.8272 239.023 13.5075 239.023 16.9005V17.3206C240.321 17.4665 241.628 17.5205 242.933 17.4822C243.808 17.4994 244.684 17.4453 245.55 17.3206L245.485 16.9329Z" fill="white"/>
<path d="M283.58 11.5042L283.386 11.6981C282.906 11.6836 282.428 11.738 281.964 11.8597C281.752 11.9428 281.572 12.0896 281.447 12.2798C281.124 12.8912 280.854 13.529 280.639 14.1863C280.155 15.4466 279.702 16.7715 279.25 18.1287L277.053 24.5916C276.859 25.141 276.665 25.7549 276.471 26.4659L275.987 28.2432H272.756L270.72 23.1698L267.65 16.1575C265.906 19.8091 264.419 23.299 262.998 26.6597L262.352 28.2432H259.282C259.282 28.2432 259.282 27.6615 258.959 26.8213L258.474 24.9794L255.696 15.0588C255.276 13.6047 254.985 12.6675 254.823 12.2798C254.723 12.0586 254.553 11.8768 254.339 11.7627C253.736 11.6158 253.117 11.5506 252.497 11.5688L252.303 11.375V10.2439L252.497 10.0501H257.408H262.578L262.804 10.2439V11.375L262.578 11.5365C261.917 11.5111 261.255 11.5653 260.607 11.6981C260.539 11.7022 260.472 11.7197 260.411 11.7496C260.35 11.7794 260.295 11.8211 260.25 11.8721C260.205 11.9231 260.171 11.9826 260.149 12.047C260.127 12.1114 260.118 12.1795 260.122 12.2474C260.141 12.6308 260.207 13.0105 260.316 13.3785L262.61 22.1034L267.133 11.9889L268.167 9.59766H270.235L275.567 22.2326L277.408 16.5776C277.92 15.2794 278.267 13.9225 278.442 12.5383C278.442 12.2151 278.442 12.0212 278.119 11.9243C277.425 11.8073 276.723 11.7425 276.019 11.7304L275.793 11.5365V10.4378L276.019 10.2116H279.961H283.386L283.58 10.4055V11.5042Z" fill="white"/>
<path d="M301.447 17.4499V18.387L301.221 18.6778C299.051 19.1866 296.825 19.4146 294.597 19.3565H290.106C290.13 21.0436 290.748 22.6684 291.851 23.9451C292.385 24.5757 293.055 25.0775 293.81 25.4132C294.566 25.7489 295.387 25.9098 296.213 25.884C297.73 25.8018 299.209 25.3823 300.543 24.656L300.995 25.2054L300.155 27.0796C298.372 28.224 296.296 28.8299 294.177 28.8246C292.969 28.8985 291.758 28.7245 290.619 28.3133C289.48 27.902 288.437 27.2623 287.554 26.4333C286.726 25.5052 286.091 24.4214 285.686 23.2452C285.281 22.069 285.114 20.824 285.195 19.5827C285.064 18.2949 285.223 16.9941 285.659 15.7753C286.095 14.5565 286.797 13.4505 287.715 12.5381C289.516 10.9574 291.787 10.0147 294.177 9.85597C295.141 9.79898 296.107 9.94178 297.013 10.2754C297.919 10.6091 298.747 11.1263 299.444 11.7948C300.813 13.3528 301.53 15.3776 301.447 17.4499ZM296.504 16.9329C296.504 13.5398 295.438 11.8272 293.273 11.8272C291.108 11.8272 290.042 13.5075 290.042 16.9005V17.3206C291.339 17.4665 292.646 17.5205 293.951 17.4822C294.827 17.4994 295.702 17.4453 296.568 17.3206L296.504 16.9329Z" fill="white"/>
<path d="M314.662 28.0167L314.468 28.1783C313.273 28.1783 311.528 28.1783 309.266 28.1783C307.005 28.1783 305.292 28.1783 304.097 28.1783L303.903 28.0167V26.8534L304.097 26.6595C304.862 26.6974 305.628 26.599 306.358 26.3687C306.617 26.3687 306.746 25.9486 306.778 25.4639C306.778 23.8158 306.778 20.9398 306.778 16.8359V10.373C306.778 7.72318 306.778 5.59042 306.778 3.91006C306.793 3.73113 306.762 3.55142 306.689 3.3876C306.615 3.22378 306.502 3.08116 306.358 2.97294C305.637 2.81444 304.896 2.77082 304.161 2.84368H303.967V1.7773L304.161 1.58341C306.653 1.3006 309.11 0.770175 311.496 0L311.884 0.226201C311.884 0.581661 311.884 1.19564 311.884 2.10045C311.884 5.13802 311.69 8.56336 311.69 12.118V16.9975C311.69 21.1014 311.69 23.9774 311.69 25.6254C311.69 26.1102 311.69 26.4333 312.077 26.5303C312.808 26.7605 313.574 26.859 314.339 26.8211L314.565 27.015L314.662 28.0167Z" fill="white"/>
<path d="M327.554 28.0167L327.36 28.1783C326.165 28.1783 324.452 28.1783 322.191 28.1783C319.929 28.1783 318.216 28.1783 317.021 28.1783L316.827 28.0167V26.8534L317.021 26.6595C317.786 26.6974 318.552 26.599 319.283 26.3687C319.509 26.3687 319.67 25.9486 319.67 25.4639C319.67 23.8158 319.832 20.9398 319.832 16.8359V10.373C319.832 7.72318 319.832 5.59042 319.67 3.91006C319.689 3.73395 319.663 3.55606 319.595 3.39245C319.527 3.22884 319.42 3.08467 319.283 2.97294C318.561 2.81758 317.82 2.77398 317.086 2.84368H316.892V1.7773L317.086 1.58341C319.567 1.30386 322.013 0.77334 324.388 0L324.808 0.226201C324.808 0.581661 324.808 1.19564 324.808 2.10045C324.808 5.13802 324.614 8.56336 324.614 12.118V16.9975C324.614 21.1014 324.614 23.9774 324.614 25.6254C324.614 26.1102 324.614 26.4333 325.034 26.5303C325.765 26.7605 326.53 26.859 327.296 26.8211L327.49 27.015L327.554 28.0167Z" fill="white"/>
<path d="M346.65 17.45V18.3871L346.423 18.6779C344.306 19.173 342.135 19.401 339.961 19.3565H335.309C335.346 21.0411 335.962 22.6614 337.053 23.9452C337.594 24.5764 338.27 25.0783 339.03 25.4139C339.791 25.7494 340.617 25.9101 341.448 25.8841C342.953 25.7972 344.421 25.3778 345.745 24.6561L346.197 25.2054L345.389 27.0797C343.596 28.2284 341.509 28.8343 339.38 28.8247C338.198 28.8729 337.019 28.6863 335.909 28.2759C334.8 27.8655 333.783 27.2392 332.918 26.4334C332.09 25.5052 331.455 24.4214 331.05 23.2453C330.645 22.0691 330.478 20.824 330.559 19.5827C330.407 18.3071 330.54 17.0138 330.948 15.7957C331.356 14.5776 332.028 13.4651 332.918 12.5381C334.761 10.9243 337.095 9.9794 339.541 9.85603C340.501 9.79765 341.462 9.93991 342.363 10.2738C343.264 10.6076 344.086 11.1257 344.776 11.7949C346.098 13.3723 346.768 15.395 346.65 17.45ZM341.738 16.9329C341.738 13.5399 340.672 11.8272 338.507 11.8272C336.343 11.8272 335.276 13.5076 335.276 16.9006V17.3207C336.574 17.4666 337.881 17.5206 339.186 17.4823C340.061 17.4994 340.936 17.4454 341.803 17.3207C341.706 17.1591 341.738 17.0299 341.738 16.9329Z" fill="url(#paint0_linear_79_765)"/>
<path d="M363.063 9.75918V13.1522C363.063 13.7016 363.063 14.3155 363.063 15.0265L362.256 15.285C361.998 14.8709 361.635 14.5329 361.203 14.3057C360.772 14.0785 360.287 13.9704 359.8 13.9924C359.351 13.9886 358.908 14.0887 358.504 14.285C358.101 14.4812 357.748 14.7681 357.474 15.1234C357.05 15.7263 356.844 16.456 356.892 17.1915V21.6186C356.892 22.5557 356.892 23.816 356.892 25.4641C356.882 25.6346 356.912 25.8053 356.979 25.9623C357.046 26.1194 357.149 26.2586 357.28 26.3689C358.147 26.5797 359.037 26.6775 359.929 26.6597L360.123 26.8213V27.9846L359.929 28.1785C358.055 28.1785 356.214 28.1785 354.404 28.1785C352.595 28.1785 350.398 28.1785 349.234 28.1785L349.041 28.0169V26.8536L349.234 26.6597C350 26.6976 350.766 26.5991 351.496 26.3689C351.722 26.3689 351.884 25.9488 351.884 25.4641C351.884 23.816 351.884 22.071 351.884 20.1968V17.4824C351.982 16.0231 351.895 14.5573 351.625 13.1199C351.57 12.9851 351.486 12.8637 351.381 12.7634C351.275 12.6632 351.149 12.5864 351.012 12.5382H349.364H349.041V11.4719L349.234 11.2457C351.676 10.9973 354.082 10.477 356.407 9.69455L356.795 9.92076V13.6369L359.638 10.4055C359.923 10.1383 360.258 9.93177 360.625 9.79844C360.992 9.66511 361.382 9.60778 361.771 9.62992C362.206 9.60064 362.643 9.64432 363.063 9.75918Z" fill="white"/>
<path d="M378.992 22.2321C379.021 23.1385 378.844 24.0396 378.474 24.8678C378.105 25.6961 377.553 26.43 376.86 27.0146C375.143 28.3336 373.012 28.9981 370.85 28.8889C368.914 28.8479 366.999 28.465 365.196 27.7579L365.002 27.467C365.002 26.3037 365.196 25.3989 365.196 24.7526V22.3613L365.39 22.1674H366.521L366.747 22.3613C366.687 23.2004 366.687 24.0428 366.747 24.8819C367.238 25.5373 367.878 26.0666 368.614 26.4261C369.35 26.7857 370.161 26.9653 370.979 26.95C371.929 26.9907 372.864 26.7056 373.629 26.1421C373.956 25.8797 374.217 25.5442 374.391 25.1626C374.565 24.7809 374.647 24.3638 374.631 23.9447C374.673 23.4516 374.549 22.9584 374.28 22.543C374.011 22.1276 373.611 21.8136 373.144 21.6504C372.692 21.4888 371.852 21.295 370.559 21.0041C369.076 20.8064 367.654 20.2882 366.391 19.4853C365.843 19.0276 365.41 18.4463 365.129 17.7891C364.849 17.1319 364.727 16.4176 364.776 15.7045C364.75 14.8627 364.918 14.0262 365.265 13.2589C365.612 12.4917 366.13 11.8139 366.779 11.2774C368.384 10.0419 370.379 9.42276 372.401 9.53245C374.139 9.47444 375.867 9.82879 377.442 10.5665V10.8573C377.245 12.3144 377.137 13.782 377.118 15.2521L376.925 15.4137H375.858L375.632 15.2521C375.615 14.5025 375.529 13.7561 375.374 13.0224C374.958 12.515 374.428 12.1129 373.827 11.849C373.226 11.5851 372.572 11.4668 371.916 11.5036C371.053 11.4732 370.203 11.7225 369.493 12.2146C369.189 12.4297 368.942 12.7158 368.773 13.048C368.604 13.3802 368.518 13.7485 368.524 14.1211C368.511 14.6036 368.664 15.0758 368.959 15.4583C369.253 15.8408 369.67 16.1104 370.139 16.2216C370.624 16.3831 371.561 16.577 372.95 16.8679C374.438 17.0502 375.869 17.5458 377.151 18.322C377.76 18.7683 378.247 19.3599 378.569 20.0429C378.89 20.7258 379.036 21.4784 378.992 22.2321Z" fill="url(#paint1_linear_79_765)"/>
<defs>
<linearGradient id="paint0_linear_79_765" x1="192.69" y1="-3.55452" x2="394.081" y2="-3.55452" gradientUnits="userSpaceOnUse">
<stop stop-color="white"/>
<stop offset="1" stop-color="white"/>
</linearGradient>
<linearGradient id="paint1_linear_79_765" x1="192.69" y1="-3.55494" x2="394.081" y2="-3.55494" gradientUnits="userSpaceOnUse">
<stop stop-color="white"/>
<stop offset="1" stop-color="white"/>
</linearGradient>
</defs>
</svg>
