<svg width="189" height="80" viewBox="0 0 189 80" fill="none" xmlns="http://www.w3.org/2000/svg">
<path d="M18.1935 17.3046C18.2268 19.1608 17.6399 20.9751 16.5257 22.4601C15.5636 23.8111 14.2391 24.8624 12.7051 25.4927C11.0476 26.1099 9.28832 26.4083 7.51997 26.3722C4.98121 26.3277 2.48446 25.7164 0.212257 24.5829L0 24.2797C0.385865 22.3333 0.548635 20.3493 0.48516 18.366L0.667095 18.2144H1.81935L1.97096 18.3964V18.8209C1.98146 19.6941 2.05238 20.5656 2.18322 21.429C2.73202 22.3061 3.53626 22.994 4.48773 23.4002C5.5938 23.973 6.82024 24.2744 8.06578 24.2797C9.02878 24.3763 9.99938 24.1966 10.864 23.7616C11.7286 23.3265 12.4513 22.6542 12.9477 21.8232C13.3867 21.0242 13.6162 20.1269 13.6148 19.2152C13.6627 18.5481 13.5091 17.8821 13.1739 17.3035C12.8387 16.7248 12.3373 16.2603 11.7348 15.9703C10.7723 15.5427 9.74945 15.2665 8.70255 15.1514C6.51768 14.9797 4.39147 14.3604 2.45612 13.3319C1.68826 12.7207 1.08018 11.9323 0.684063 11.0343C0.287949 10.1363 0.115643 9.15563 0.181935 8.1764C0.126967 7.07466 0.318991 5.97456 0.743955 4.95662C1.16892 3.93868 1.81607 3.02864 2.63806 2.29309C4.68252 0.673901 7.25151 -0.135757 9.8548 0.0186215C12.1723 -0.0714483 14.4784 0.38568 16.5864 1.35298V1.77755C16.2634 3.4571 16.0909 5.16214 16.0709 6.87236L15.8587 7.024H14.858L14.7064 6.87236C14.7064 5.44703 14.7064 4.50691 14.5245 4.08235C14.0299 3.42862 13.3555 2.93329 12.5838 2.65701C11.6226 2.25815 10.5923 2.05207 9.55158 2.05048C8.18112 1.9757 6.83453 2.43186 5.79159 3.32419C5.37269 3.70911 5.03996 4.17832 4.81524 4.70098C4.59052 5.22365 4.47891 5.78795 4.48773 6.35682C4.4366 6.94961 4.5479 7.54513 4.80968 8.07942C5.07145 8.61372 5.4738 9.06661 5.97353 9.38945C7.40283 10.0389 8.92923 10.4487 10.4916 10.6025L12.5838 10.9361C13.2438 11.054 13.8929 11.2264 14.5245 11.4516C15.6184 11.8382 16.5627 12.5598 17.2232 13.5138C17.8985 14.6602 18.235 15.9747 18.1935 17.3046Z" fill="url(#paint0_linear_79_617)"/>
<path d="M49.9108 9.96567L49.7289 10.1476C49.2792 10.134 48.8298 10.1851 48.3947 10.2993C48.2013 10.386 48.034 10.5219 47.9095 10.6935C47.6065 11.2673 47.3529 11.8659 47.1514 12.4828C46.7269 13.6655 46.2721 14.9089 45.8476 16.1826L43.7856 22.2478C43.6037 22.7634 43.4521 23.3396 43.2702 24.0067L42.785 25.6747H39.7528L37.8121 20.9135L34.9618 14.3327C33.3547 17.8808 31.9902 21.247 30.7167 24.2797L30.1102 25.7657H27.2902C27.1498 25.3287 27.0384 24.883 26.9567 24.4313C26.8398 23.8465 26.6879 23.2693 26.5018 22.7027L23.8335 13.4229C23.4393 12.0279 23.1664 11.1787 23.0148 10.8148C22.9209 10.6073 22.761 10.4366 22.5599 10.3296C21.995 10.1891 21.4133 10.1278 20.8315 10.1476L20.6496 9.96567V8.90425L20.8619 8.72229H25.4405H30.3225L30.5044 8.90425V9.96567L30.3225 10.1173C29.7082 10.0415 29.087 10.0415 28.4728 10.1173C28.3414 10.125 28.218 10.1828 28.1277 10.2786C28.0375 10.3745 27.9874 10.5012 27.9876 10.6328C28.0058 10.9926 28.0668 11.349 28.1696 11.6943L30.3225 20.034L34.5979 10.5419L35.5379 8.2674H37.3573L42.4515 20.034L44.1798 14.7269C44.666 13.4981 45.002 12.2151 45.1805 10.9058C45.1939 10.7904 45.1722 10.6736 45.118 10.5707C45.0639 10.4679 44.98 10.3838 44.8773 10.3296C44.2152 10.2227 43.5465 10.1619 42.876 10.1476L42.694 9.96567V8.93457L42.9063 8.72229H46.6056H49.6379L49.8198 8.90425L49.9108 9.96567Z" fill="url(#paint1_linear_79_617)"/>
<path d="M66.7095 25.4018V25.5837C65.7088 25.5837 64.5869 25.5837 63.283 25.5837C61.9792 25.5837 61.3121 25.5837 60.4024 25.5837L60.2205 25.4018L60.4024 23.006L56.9456 25.6444C56.5971 25.8821 56.1849 26.009 55.763 26.0083H55.0656C54.5043 26.0466 53.9415 25.9604 53.4173 25.756C52.8931 25.5515 52.4206 25.2338 52.0334 24.8256C51.2861 23.903 50.9079 22.7359 50.9721 21.5503C50.8985 20.7971 51.022 20.0377 51.3303 19.3466C51.6386 18.6554 52.1212 18.0563 52.7308 17.6079C55.1428 16.426 57.736 15.6572 60.4024 15.3334C60.4914 14.6249 60.399 13.9053 60.1338 13.2422C59.8686 12.5791 59.4394 11.9943 58.8863 11.5426C58.2364 11.1536 57.4907 10.9541 56.7334 10.9664C55.9621 10.9133 55.1948 11.1158 54.5501 11.5426L53.8527 13.1803H53.6405L52.7308 12.968V12.7254V10.6329C54.0183 9.52949 55.5131 8.69436 57.1276 8.17642C57.6619 8.12291 58.2003 8.12291 58.7347 8.17642C59.6446 8.09241 60.5618 8.21516 61.4177 8.53549C62.2735 8.85583 63.046 9.36547 63.6772 10.0263C64.491 11.2294 64.8756 12.6718 64.7688 14.1204C64.7688 14.5753 64.7688 15.3031 64.7688 16.3039C64.7688 17.9415 64.7688 19.0636 64.7688 19.6094C64.7688 21.3987 64.7688 22.6421 64.7688 23.0363C64.7682 23.2143 64.8058 23.3903 64.879 23.5525C64.9522 23.7147 65.0594 23.8592 65.1933 23.9764C65.6728 24.1798 66.1887 24.283 66.7095 24.2797V25.4018ZM60.2811 21.2471V16.8801C58.8896 17.091 57.5455 17.5425 56.3088 18.2144C55.9646 18.4807 55.6906 18.8272 55.5109 19.2236C55.3312 19.6201 55.2512 20.0544 55.2779 20.4889C55.2779 22.0962 56.0056 22.8847 57.4005 22.8847C57.9828 22.8926 58.5568 22.745 59.0631 22.4571C59.5695 22.1693 59.9899 21.7516 60.2811 21.2471Z" fill="url(#paint2_linear_79_617)"/>
<path d="M87.4804 9.99593H87.2984C87.0001 9.95749 86.6969 9.999 86.4198 10.1162C86.1428 10.2335 85.9018 10.4222 85.7217 10.6631C85.5397 10.936 85.1455 11.8155 84.4481 13.2712C82.9017 16.6677 81.5978 19.6094 80.5972 22.1265L77.7165 29.1925C77.1344 30.946 76.1595 32.5434 74.8662 33.8627C73.9106 34.7428 72.6471 35.2113 71.3488 35.1668C70.4647 35.1606 69.5937 34.9532 68.8017 34.5602C69.0241 33.7111 69.2363 32.5284 69.4385 31.0121H69.8933C70.1715 31.4236 70.5464 31.7605 70.9853 31.9932C71.4241 32.2259 71.9134 32.3472 72.4101 32.3464C73.6533 32.3464 74.7752 31.1334 75.8365 28.6769L76.5643 26.9787L70.803 12.1491C70.6324 11.5484 70.3205 10.9973 69.8933 10.5418C69.3931 10.2695 68.8228 10.1533 68.2559 10.2082L68.074 10.0263V8.90419L68.2559 8.72223H72.6223H77.4739L77.6559 8.90419V9.96561L77.4739 10.1476C76.1094 10.1476 75.4423 10.3902 75.4423 10.8754C75.454 11.1472 75.5157 11.4145 75.6243 11.6639L76.4733 14.09L79.081 20.9437L80.6578 17.2136C81.6371 15.1554 82.3993 13.0007 82.932 10.7844C82.932 10.3598 82.2649 10.1476 80.8701 10.1476L80.6881 9.96561V8.90419L80.9004 8.72223H84.3875H87.4197L87.632 8.90419L87.4804 9.99593Z" fill="url(#paint3_linear_79_617)"/>
<path d="M104.249 25.4018L104.036 25.5837C103.036 25.5837 101.914 25.5837 100.61 25.5837C99.3061 25.5837 98.639 25.5837 97.5777 25.5837L97.3958 25.4018L97.5777 23.006L94.121 25.6444C93.7725 25.8821 93.3603 26.009 92.9384 26.0083H92.241C91.6799 26.0445 91.1176 25.9574 90.5938 25.7531C90.0699 25.5487 89.5972 25.2321 89.2087 24.8256C88.4615 23.903 88.0833 22.7359 88.1474 21.5503C88.0739 20.7971 88.1973 20.0377 88.5056 19.3466C88.814 18.6554 89.2966 18.0563 89.9061 17.6079C92.3182 16.426 94.9114 15.6572 97.5777 15.3334C97.6668 14.6249 97.5744 13.9053 97.3092 13.2422C97.044 12.5791 96.6147 11.9943 96.0616 11.5426C95.4363 11.1775 94.7237 10.9889 93.9997 10.9968C93.2284 10.9437 92.4611 11.1462 91.8165 11.573L91.1494 13.2106H90.9068L89.9971 12.9983V12.7557V10.6632C91.2846 9.55983 92.7794 8.72469 94.3939 8.20675C94.9383 8.15203 95.4869 8.15203 96.0313 8.20675C96.9438 8.1142 97.8654 8.22987 98.7268 8.54504C99.5882 8.86021 100.367 9.36668 101.004 10.0263C101.818 11.2294 102.203 12.6718 102.096 14.1204C102.096 14.5753 102.096 15.3031 102.096 16.3039C102.096 17.9415 102.096 19.0636 102.096 19.6094C102.096 21.3987 102.096 22.6421 102.096 23.0363C102.095 23.2143 102.133 23.3903 102.206 23.5525C102.279 23.7147 102.386 23.8592 102.52 23.9764C103.025 24.1571 103.562 24.2294 104.097 24.1887L104.279 24.401L104.249 25.4018ZM97.7293 21.2471V16.8801C96.3379 17.091 94.9938 17.5425 93.7571 18.2144C93.4184 18.4839 93.1503 18.8318 92.9759 19.2281C92.8016 19.6243 92.7263 20.057 92.7565 20.4889C92.7565 22.0962 93.4539 22.8847 94.8487 22.8847C95.4311 22.8926 96.005 22.745 96.5114 22.4571C97.0178 22.1693 97.4382 21.7516 97.7293 21.2471Z" fill="url(#paint4_linear_79_617)"/>
<path d="M136.603 25.4018L136.451 25.6141C135.239 25.5471 134.024 25.5471 132.812 25.6141C131.803 25.5532 130.79 25.5532 129.78 25.6141L129.538 25.2805C129.72 22.3085 129.811 20.1553 129.811 18.821V17.2137C129.851 16.0389 129.8 14.8628 129.659 13.6958C129.494 13.089 129.144 12.5485 128.658 12.1492C128.137 11.703 127.463 11.4749 126.778 11.5123C125.968 11.4817 125.173 11.7396 124.534 12.2402C124.257 12.475 124.035 12.7678 123.883 13.0979C123.731 13.428 123.653 13.7873 123.655 14.1507V19.3062V22.0962C123.64 22.61 123.712 23.1226 123.867 23.6125C123.867 23.6125 124.11 23.8551 124.352 23.9461C124.942 24.0921 125.539 24.2034 126.141 24.2797L126.323 24.4617V25.5231L126.111 25.7354C124.686 25.7354 123.079 25.7354 121.745 25.7354C120.411 25.7354 118.379 25.7354 117.075 25.7354L116.863 25.5231V24.2797H117.045L118.591 24.0674C118.803 24.0674 118.955 23.8551 119.046 23.5519C119.125 22.8972 119.125 22.2353 119.046 21.5807V15.8187C119.081 14.8689 118.978 13.919 118.743 12.9983C118.564 12.5297 118.233 12.1347 117.803 11.8762C117.308 11.5822 116.74 11.435 116.165 11.4517C115.689 11.4346 115.215 11.5206 114.776 11.7038C114.336 11.887 113.941 12.1631 113.618 12.5131C113.377 12.7355 113.199 13.0181 113.103 13.3319C113.051 13.7752 113.051 14.223 113.103 14.6663V18.3964C113.103 19.1546 113.103 20.125 113.103 21.429C113.062 22.1563 113.062 22.8853 113.103 23.6125C113.103 23.8551 113.376 24.0068 113.709 24.0977C114.202 24.1629 114.702 24.1629 115.195 24.0977V24.2797V25.3714V25.5534C114.164 25.5534 112.678 25.5534 110.677 25.5534C108.676 25.5534 106.947 25.5534 105.825 25.5534L105.643 25.3714V24.2797H106.129C106.847 24.3153 107.565 24.2229 108.251 24.0068C108.463 24.0068 108.615 23.6125 108.615 23.1576C108.615 21.611 108.615 20.125 108.615 18.1841V15.5761C108.705 14.2053 108.613 12.8286 108.342 11.482C108.261 11.3516 108.15 11.2423 108.018 11.1632C107.886 11.0841 107.737 11.0375 107.584 11.0271L106.129 10.9361V10.7542V9.78373V9.57145C108.42 9.33838 110.678 8.85013 112.86 8.11578L113.254 8.32807V11.1484L116.287 8.601C116.936 8.31679 117.64 8.18206 118.349 8.20676C119.45 8.14256 120.549 8.37284 121.532 8.87394C122.381 9.42939 123.021 10.2507 123.352 11.2091L126.566 8.601C127.237 8.31944 127.961 8.18501 128.689 8.20676C129.638 8.11038 130.595 8.29457 131.442 8.73655C132.288 9.17854 132.986 9.85892 133.449 10.6935C133.915 11.7518 134.123 12.9055 134.056 14.0597C134.056 14.6966 134.056 15.1515 134.056 15.4547V16.1219C134.056 16.6981 134.056 17.0924 134.056 17.2743V19.5791C134.056 21.3684 134.056 22.6118 134.056 23.006C134.059 23.1833 134.098 23.3582 134.171 23.5198C134.244 23.6815 134.349 23.8265 134.48 23.9461C135.106 24.1965 135.778 24.3102 136.451 24.2797L136.633 24.492L136.603 25.4018Z" fill="url(#paint5_linear_79_617)"/>
<path d="M157.283 9.99593L157.101 10.1779C156.624 10.1887 156.152 10.281 155.706 10.4508C155.433 10.651 155.223 10.9244 155.099 11.2393C154.601 12.2255 154.155 13.2378 153.765 14.2719L150.369 21.9748L148.823 25.7959H145.79C145.123 23.9157 144.396 22.0051 143.607 20.0643L140.363 12.1491C139.999 11.1483 139.574 10.5721 139.12 10.4205C138.775 10.3147 138.418 10.2536 138.058 10.2385L137.876 10.0566V8.90419L138.058 8.72223H142.819H147.094L147.276 8.90419V9.96561L147.094 10.1476C146.525 10.1511 145.957 10.2019 145.396 10.2992C145.284 10.3206 145.183 10.3811 145.111 10.4698C145.038 10.5586 145 10.67 145.002 10.7844C145.6 12.9099 146.329 14.9963 147.185 17.0316C147.943 19.0938 148.459 20.3675 148.701 20.8831C149.459 19.1241 150.187 17.3652 150.854 15.667C151.584 14.1012 152.153 12.4652 152.552 10.7844C152.556 10.6742 152.522 10.5661 152.456 10.4779C152.389 10.3897 152.295 10.3267 152.188 10.2992C151.609 10.1832 151.02 10.1223 150.43 10.1172L150.248 9.96561V8.90419L150.43 8.72223H153.674H157.101L157.283 8.90419V9.99593Z" fill="url(#paint6_linear_79_617)"/>
<path d="M174.021 25.4017L173.839 25.5837C172.838 25.5837 171.686 25.5837 170.412 25.5837C169.139 25.5837 168.441 25.5837 167.38 25.5837L167.228 25.4017L167.38 23.0059L163.954 25.6443C163.605 25.8821 163.193 26.0089 162.771 26.0082H162.043C161.482 26.0487 160.918 25.9635 160.394 25.7589C159.869 25.5544 159.397 25.2355 159.011 24.8255C158.25 23.9103 157.87 22.7377 157.95 21.5503C157.876 20.797 158 20.0376 158.308 19.3465C158.616 18.6554 159.099 18.0562 159.708 17.6078C162.109 16.4244 164.693 15.6554 167.35 15.3334C167.442 14.6274 167.355 13.9095 167.095 13.2467C166.835 12.5838 166.412 11.9975 165.864 11.5426C165.218 11.1739 164.485 10.9854 163.741 10.9967C162.961 10.9501 162.186 11.1518 161.528 11.5729L160.861 13.2105H160.648L159.739 12.9983V12.7556V10.6631C161.022 9.55359 162.518 8.71772 164.136 8.20669C164.67 8.15042 165.208 8.15042 165.743 8.20669C166.66 8.10941 167.588 8.22274 168.455 8.53806C169.322 8.85337 170.105 9.36236 170.746 10.0263C171.56 11.2294 171.944 12.6717 171.837 14.1203C171.837 14.5752 171.837 15.303 171.837 16.3038C171.837 17.9414 171.837 19.0635 171.837 19.6094C171.837 21.3986 171.837 22.642 171.837 23.0363C171.837 23.4305 172.019 23.8551 172.262 23.9764C172.757 24.1554 173.284 24.2278 173.808 24.1887L173.99 24.4009L174.021 25.4017ZM167.501 21.247V16.88C166.117 17.0971 164.782 17.5592 163.559 18.2447C163.211 18.5073 162.934 18.8531 162.754 19.2505C162.574 19.6479 162.496 20.0841 162.528 20.5192C162.528 22.1265 163.226 22.9149 164.651 22.9149C165.233 22.9208 165.805 22.7688 166.307 22.4751C166.809 22.1813 167.222 21.7569 167.501 21.247Z" fill="url(#paint7_linear_79_617)"/>
<path d="M189 8.32801V11.3606C189 11.8762 189 12.4524 189 13.1196L187.999 13.5138C187.748 13.1271 187.401 12.8121 186.992 12.5995C186.583 12.3869 186.125 12.284 185.665 12.3008C185.243 12.2972 184.827 12.3912 184.448 12.5753C184.07 12.7595 183.739 13.0288 183.481 13.3622C183.083 13.9279 182.891 14.6128 182.936 15.3031V19.4578C182.936 20.3372 182.936 21.5199 182.936 23.0666C182.936 23.4912 182.936 23.7944 183.33 23.9157C184.132 24.118 184.959 24.2098 185.786 24.1887H185.968V25.2804L185.786 25.4624C184.057 25.4624 182.329 25.4624 180.601 25.4624C178.872 25.4624 176.871 25.4624 175.749 25.4624L175.87 25.432V24.2796C176.588 24.3152 177.307 24.2228 177.993 24.0067C178.205 24.0067 178.357 23.6125 178.387 23.1576C178.387 21.6109 178.387 20.1249 178.387 18.1841V15.576C178.477 14.2052 178.386 12.8286 178.114 11.4819C178.037 11.3479 177.927 11.2358 177.794 11.1562C177.662 11.0766 177.511 11.0322 177.356 11.027L175.87 10.9361V10.7541V9.78367V9.57139C178.161 9.33832 180.419 8.85007 182.602 8.11573L182.996 8.32801V11.8155C183.724 10.9664 184.603 9.96563 185.634 8.7829C185.901 8.53217 186.216 8.33834 186.56 8.21322C186.904 8.0881 187.27 8.03429 187.636 8.05507C188.103 8.06567 188.565 8.15805 189 8.32801Z" fill="url(#paint8_linear_79_617)"/>
<path d="M28.3993 51.9979C28.1846 53.8091 28.1035 55.6336 28.1567 57.4566V65.7054C28.3249 68.5627 27.9861 71.4272 27.1561 74.1664C26.8576 75.1535 26.3477 76.0637 25.6616 76.8336C24.9756 77.6035 24.1301 78.2146 23.1839 78.6244C22.5056 78.8817 21.7867 79.0152 21.0613 79.0186H20.3942L20 77.7449L20.1516 77.5023H20.6974C21.263 77.5298 21.82 77.356 22.2696 77.0118C22.7192 76.6676 23.0324 76.1752 23.1535 75.6221C23.6437 72.6159 23.8165 69.5665 23.669 66.5242V59.2459C23.7286 57.9179 23.6575 56.5872 23.4568 55.2731C23.4308 55.1004 23.3483 54.9411 23.2221 54.8203C23.0958 54.6996 22.9331 54.6242 22.7593 54.606H21.1219H20.94V53.6052L21.1219 53.3929C23.5127 53.1396 25.8644 52.6 28.1264 51.7856L28.3993 51.9979ZM28.3993 45.9326C28.4035 46.295 28.3329 46.6544 28.1921 46.9883C28.0512 47.3223 27.8431 47.6236 27.5806 47.8735C27.3389 48.1382 27.0434 48.3481 26.7139 48.4894C26.3845 48.6306 26.0287 48.6998 25.6703 48.6923C25.3079 48.6965 24.9486 48.6259 24.6147 48.485C24.2808 48.3442 23.9796 48.136 23.7297 47.8735C23.4769 47.6179 23.2772 47.3148 23.1419 46.9817C23.0066 46.6487 22.9384 46.2921 22.9413 45.9326C22.9341 45.1973 23.2174 44.4889 23.7297 43.9614C23.9787 43.7018 24.2777 43.4953 24.6085 43.3542C24.9394 43.2131 25.2954 43.1403 25.6551 43.1403C26.0149 43.1403 26.3709 43.2131 26.7017 43.3542C27.0326 43.4953 27.3316 43.7018 27.5806 43.9614C27.8705 44.2025 28.1046 44.5036 28.2669 44.8439C28.4291 45.1842 28.5157 45.5556 28.5206 45.9326H28.3993Z" fill="url(#paint9_linear_79_617)"/>
<path d="M48.958 59.2155V60.095L48.7457 60.3679C46.7095 60.8454 44.6204 61.0594 42.5296 61.0048H38.3148C38.3262 62.5848 38.8954 64.11 39.9219 65.3111C40.4309 65.9019 41.0651 66.3717 41.7785 66.6865C42.4918 67.0012 43.2664 67.153 44.0457 67.1307C45.4683 67.0496 46.8556 66.6561 48.109 65.9783L48.5335 66.4938L47.7451 68.2528C46.0715 69.3267 44.1239 69.8953 42.1354 69.8904C41.0261 69.939 39.9182 69.7655 38.8768 69.3802C37.8354 68.9948 36.8815 68.4053 36.0709 67.6462C35.2938 66.7752 34.6978 65.7581 34.3178 64.6543C33.9377 63.5505 33.7812 62.382 33.8574 61.2171C33.715 60.02 33.8397 58.8062 34.2224 57.6631C34.6052 56.52 35.2365 55.4759 36.0709 54.6059C37.7605 53.1225 39.8921 52.2378 42.1354 52.0889C43.0402 52.0354 43.9462 52.1694 44.7967 52.4825C45.6472 52.7956 46.4239 53.2811 47.078 53.9084C48.3626 55.3705 49.0357 57.2707 48.958 59.2155ZM44.3187 58.7303C44.3187 55.5461 43.318 53.9388 41.2864 53.9388C39.2548 53.9388 38.2542 55.5157 38.2542 58.7V59.0942C39.4721 59.2311 40.6981 59.2818 41.9232 59.2459C42.7446 59.262 43.5661 59.2113 44.3793 59.0942L44.3187 58.7303Z" fill="url(#paint10_linear_79_617)"/>
<path d="M80.0688 53.6355L79.8869 53.8175C79.4372 53.8039 78.9879 53.8549 78.5527 53.9691C78.3541 54.0471 78.1846 54.1849 78.0675 54.3633C77.7645 54.9372 77.5109 55.5357 77.3095 56.1526C76.8547 57.3353 76.4301 58.5787 76.0056 59.8524L73.9437 65.9177C73.7618 66.4332 73.5798 67.0094 73.3979 67.6766L72.9431 69.3445H69.9108L68.0005 64.5833L65.1199 58.0025C63.4824 61.4294 62.0876 64.7046 60.7534 67.8585L60.147 69.3445H57.2663C57.2663 69.3445 57.2663 68.7986 56.9631 68.0102L56.5083 66.2816L53.9005 56.9714C53.5063 55.6067 53.2334 54.7273 53.0818 54.3633C52.988 54.1558 52.828 53.9852 52.627 53.8781C52.0616 53.7402 51.4803 53.679 50.8986 53.6962L50.7167 53.5142V52.4528L50.8986 52.2708H55.5076H60.3592L60.5715 52.4528V53.5142L60.3592 53.6658C59.7388 53.6419 59.1178 53.6928 58.5096 53.8175C58.4458 53.8213 58.3834 53.8377 58.326 53.8658C58.2686 53.8938 58.2173 53.9329 58.1751 53.9808C58.1328 54.0287 58.1004 54.0844 58.0798 54.1449C58.0591 54.2053 58.0506 54.2693 58.0547 54.333C58.0728 54.6928 58.1339 55.0491 58.2366 55.3944L60.3895 63.5825L64.6347 54.0904L65.605 51.8463H67.5457L72.5489 63.7038L74.2772 58.3967C74.7571 57.1784 75.083 55.905 75.2476 54.6059C75.2476 54.3027 75.2476 54.1207 74.9443 54.0297C74.2928 53.9199 73.634 53.8591 72.9734 53.8478L72.7611 53.6658V52.6347L72.9734 52.4225H76.6727H79.8869L80.0688 52.6044V53.6355Z" fill="url(#paint11_linear_79_617)"/>
<path d="M96.8372 59.2155V60.095L96.6249 60.3679C94.5886 60.8454 92.4995 61.0594 90.4088 61.0048H86.194C86.2164 62.5882 86.7962 64.1129 87.8314 65.3111C88.3329 65.9029 88.9614 66.3738 89.6702 66.6889C90.379 67.0039 91.1497 67.155 91.9249 67.1307C93.3482 67.0536 94.7363 66.6599 95.9881 65.9783L96.4126 66.4939L95.6243 68.2528C93.9507 69.3267 92.003 69.8953 90.0146 69.8904C88.8803 69.9597 87.7437 69.7964 86.6748 69.4105C85.6058 69.0246 84.627 68.4242 83.7985 67.6462C83.0213 66.7752 82.4254 65.7581 82.0453 64.6543C81.6653 63.5505 81.5088 62.382 81.585 61.2171C81.4621 60.0085 81.6108 58.7878 82.0199 57.644C82.4291 56.5002 83.0886 55.4623 83.9501 54.6059C85.6397 53.1225 87.7713 52.2378 90.0146 52.0889C90.9193 52.0354 91.8253 52.1694 92.6759 52.4825C93.5264 52.7956 94.303 53.2811 94.9572 53.9084C96.2417 55.3705 96.9149 57.2707 96.8372 59.2155ZM92.1978 58.7303C92.1978 55.5461 91.1972 53.9388 89.1656 53.9388C87.134 53.9388 86.1333 55.5157 86.1333 58.7V59.0942C87.3512 59.2311 88.5773 59.2818 89.8023 59.2459C90.6238 59.262 91.4452 59.2113 92.2585 59.0942L92.1978 58.7303Z" fill="url(#paint12_linear_79_617)"/>
<path d="M109.239 69.1323L109.057 69.2839C107.935 69.2839 106.298 69.2839 104.175 69.2839C102.053 69.2839 100.446 69.2839 99.3236 69.2839L99.1417 69.1323V68.0405L99.3236 67.8586C100.042 67.8941 100.76 67.8017 101.446 67.5856C101.689 67.5856 101.81 67.1914 101.84 66.7365C101.84 65.1898 101.84 62.4908 101.84 58.6394V52.5741C101.84 50.0873 101.84 48.0858 101.84 46.5088C101.854 46.3409 101.825 46.1723 101.756 46.0185C101.687 45.8648 101.581 45.7309 101.446 45.6294C100.77 45.4806 100.074 45.4397 99.3842 45.5081H99.2023V44.5073L99.3842 44.3253C101.722 44.0599 104.028 43.5621 106.267 42.8394L106.631 43.0516C106.631 43.3852 106.631 43.9614 106.631 44.8106C106.631 47.6612 106.449 50.8758 106.449 54.2117V58.791C106.449 62.6424 106.449 65.3415 106.449 66.8881C106.449 67.343 106.449 67.6463 106.813 67.7372C107.499 67.9533 108.218 68.0458 108.936 68.0102L109.148 68.1921L109.239 69.1323Z" fill="url(#paint13_linear_79_617)"/>
<path d="M121.338 69.1323L121.156 69.2839C120.034 69.2839 118.427 69.2839 116.304 69.2839C114.182 69.2839 112.575 69.2839 111.453 69.2839L111.271 69.1323V68.0405L111.453 67.8586C112.171 67.8941 112.889 67.8017 113.575 67.5856C113.787 67.5856 113.939 67.1914 113.939 66.7365C113.939 65.1898 114.091 62.4908 114.091 58.6394V52.5741C114.091 50.0873 114.091 48.0858 113.939 46.5088C113.956 46.3436 113.932 46.1766 113.868 46.0231C113.805 45.8695 113.704 45.7342 113.575 45.6294C112.898 45.4836 112.203 45.4427 111.513 45.5081H111.331V44.5073L111.513 44.3253C113.842 44.063 116.138 43.5651 118.366 42.8394L118.76 43.0516C118.76 43.3852 118.76 43.9614 118.76 44.8106C118.76 47.6612 118.578 50.8758 118.578 54.2117V58.791C118.578 62.6424 118.578 65.3415 118.578 66.8881C118.578 67.343 118.578 67.6463 118.973 67.7372C119.658 67.9533 120.377 68.0458 121.095 68.0102L121.277 68.1921L121.338 69.1323Z" fill="url(#paint14_linear_79_617)"/>
<path d="M139.258 59.2156V60.095L139.046 60.368C137.059 60.8326 135.022 61.0466 132.982 61.0048H128.615C128.65 62.5857 129.228 64.1064 130.253 65.3112C130.76 65.9036 131.394 66.3746 132.108 66.6895C132.821 67.0044 133.597 67.1552 134.376 67.1307C135.789 67.0492 137.167 66.6556 138.409 65.9783L138.834 66.4939L138.076 68.2528C136.393 69.3308 134.434 69.8995 132.436 69.8904C131.327 69.9357 130.22 69.7606 129.179 69.3754C128.138 68.9902 127.184 68.4025 126.371 67.6463C125.594 66.7752 124.998 65.7581 124.618 64.6543C124.238 63.5505 124.082 62.382 124.158 61.2171C124.015 60.02 124.14 58.8063 124.523 57.6631C124.905 56.52 125.537 55.4759 126.371 54.606C128.101 53.0915 130.291 52.2047 132.587 52.0889C133.488 52.0341 134.389 52.1676 135.235 52.4809C136.081 52.7942 136.852 53.2804 137.5 53.9085C138.74 55.3888 139.369 57.2871 139.258 59.2156ZM134.649 58.7303C134.649 55.5461 133.649 53.9388 131.617 53.9388C129.585 53.9388 128.585 55.5158 128.585 58.7V59.0943C129.803 59.2312 131.029 59.2818 132.254 59.2459C133.075 59.262 133.897 59.2113 134.71 59.0943C134.619 58.9426 134.649 58.8213 134.649 58.7303Z" fill="url(#paint15_linear_79_617)"/>
<path d="M154.662 51.9979V55.1821C154.662 55.6977 154.662 56.2739 154.662 56.9411L153.904 57.1837C153.662 56.7951 153.321 56.4778 152.916 56.2646C152.511 56.0515 152.057 55.95 151.6 55.9706C151.178 55.9671 150.762 56.061 150.383 56.2452C150.005 56.4293 149.674 56.6986 149.416 57.032C149.018 57.5978 148.826 58.2826 148.871 58.9729V63.1276C148.871 64.0071 148.871 65.1898 148.871 66.7365C148.861 66.8965 148.889 67.0567 148.952 67.2041C149.015 67.3515 149.112 67.4821 149.234 67.5856C150.048 67.7835 150.884 67.8752 151.721 67.8585L151.903 68.0102V69.1019L151.721 69.2839C149.962 69.2839 148.234 69.2839 146.536 69.2839C144.838 69.2839 142.776 69.2839 141.684 69.2839L141.502 69.1322V68.0405L141.684 67.8585C142.402 67.8941 143.121 67.8017 143.807 67.5856C144.019 67.5856 144.171 67.1914 144.171 66.7365C144.171 65.1898 144.171 63.5522 144.171 61.7933V59.2459C144.263 57.8764 144.181 56.5008 143.928 55.1518C143.876 55.0254 143.798 54.9113 143.698 54.8173C143.599 54.7232 143.481 54.6512 143.352 54.6059H141.805H141.502V53.6052L141.684 53.3929C143.975 53.1598 146.233 52.6716 148.416 51.9372L148.78 52.1495V55.637L151.448 52.6044C151.715 52.3537 152.03 52.1598 152.374 52.0347C152.718 51.9096 153.084 51.8558 153.449 51.8766C153.858 51.8491 154.267 51.8901 154.662 51.9979Z" fill="url(#paint16_linear_79_617)"/>
<path d="M169.611 63.7038C169.638 64.5545 169.471 65.4001 169.125 66.1774C168.778 66.9547 168.26 67.6435 167.61 68.1921C165.998 69.43 163.999 70.0535 161.97 69.951C160.152 69.9125 158.356 69.5532 156.663 68.8896L156.481 68.6167C156.481 67.5249 156.663 66.6758 156.663 66.0693V63.8251L156.845 63.6432H157.907L158.119 63.8251C158.062 64.6126 158.062 65.4031 158.119 66.1906C158.58 66.8057 159.181 67.3024 159.871 67.6398C160.562 67.9773 161.323 68.1458 162.091 68.1315C162.982 68.1696 163.859 67.9021 164.578 67.3733C164.885 67.127 165.13 66.8122 165.293 66.454C165.456 66.0959 165.533 65.7044 165.518 65.3111C165.557 64.8483 165.441 64.3855 165.189 63.9957C164.936 63.6058 164.561 63.3111 164.123 63.158C163.698 63.0063 162.91 62.8244 161.697 62.5514C160.305 62.3659 158.97 61.8795 157.785 61.1261C157.27 60.6965 156.865 60.1509 156.601 59.5342C156.337 58.9175 156.224 58.2471 156.269 57.5779C156.245 56.7879 156.402 56.0029 156.728 55.2828C157.054 54.5627 157.54 53.9267 158.149 53.4232C159.655 52.2637 161.527 51.6826 163.425 51.7856C165.057 51.7312 166.678 52.0637 168.156 52.756V53.029C167.971 54.3963 167.87 55.7737 167.852 57.1533L167.67 57.305H166.67L166.458 57.1533C166.442 56.4498 166.36 55.7493 166.215 55.0608C165.825 54.5846 165.327 54.2073 164.763 53.9596C164.2 53.7119 163.585 53.6009 162.971 53.6355C162.16 53.6069 161.363 53.8409 160.696 54.3027C160.411 54.5046 160.179 54.773 160.02 55.0848C159.862 55.3965 159.782 55.7422 159.787 56.0919C159.774 56.5447 159.919 56.9878 160.195 57.3468C160.471 57.7058 160.862 57.9588 161.303 58.0631C161.758 58.2148 162.637 58.3967 163.941 58.6697C165.336 58.8408 166.68 59.3059 167.883 60.0343C168.454 60.4532 168.912 61.0084 169.213 61.6493C169.515 62.2902 169.652 62.9965 169.611 63.7038Z" fill="url(#paint17_linear_79_617)"/>
<defs>
<linearGradient id="paint0_linear_79_617" x1="0" y1="39.5035" x2="189" y2="39.5035" gradientUnits="userSpaceOnUse">
<stop stop-color="#C6942C"/>
<stop offset="1" stop-color="#C99209"/>
</linearGradient>
<linearGradient id="paint1_linear_79_617" x1="-9.26763e-06" y1="39.5035" x2="189" y2="39.5035" gradientUnits="userSpaceOnUse">
<stop stop-color="#C6942C"/>
<stop offset="1" stop-color="#C99209"/>
</linearGradient>
<linearGradient id="paint2_linear_79_617" x1="-2.6182e-06" y1="39.5035" x2="189" y2="39.5035" gradientUnits="userSpaceOnUse">
<stop stop-color="#C6942C"/>
<stop offset="1" stop-color="#C99209"/>
</linearGradient>
<linearGradient id="paint3_linear_79_617" x1="1.08584e-05" y1="39.5034" x2="189" y2="39.5034" gradientUnits="userSpaceOnUse">
<stop stop-color="#C6942C"/>
<stop offset="1" stop-color="#C99209"/>
</linearGradient>
<linearGradient id="paint4_linear_79_617" x1="3.22073e-05" y1="39.5035" x2="189" y2="39.5035" gradientUnits="userSpaceOnUse">
<stop stop-color="#C6942C"/>
<stop offset="1" stop-color="#C99209"/>
</linearGradient>
<linearGradient id="paint5_linear_79_617" x1="-4.18493e-05" y1="39.5035" x2="189" y2="39.5035" gradientUnits="userSpaceOnUse">
<stop stop-color="#C6942C"/>
<stop offset="1" stop-color="#C99209"/>
</linearGradient>
<linearGradient id="paint6_linear_79_617" x1="-2.82427e-05" y1="39.5034" x2="189" y2="39.5034" gradientUnits="userSpaceOnUse">
<stop stop-color="#C6942C"/>
<stop offset="1" stop-color="#C99209"/>
</linearGradient>
<linearGradient id="paint7_linear_79_617" x1="3.2021e-05" y1="39.5034" x2="189" y2="39.5034" gradientUnits="userSpaceOnUse">
<stop stop-color="#C6942C"/>
<stop offset="1" stop-color="#C99209"/>
</linearGradient>
<linearGradient id="paint8_linear_79_617" x1="-0.000107243" y1="39.5034" x2="189" y2="39.5034" gradientUnits="userSpaceOnUse">
<stop stop-color="#C6942C"/>
<stop offset="1" stop-color="#C99209"/>
</linearGradient>
<linearGradient id="paint9_linear_79_617" x1="-5.2283" y1="39.5035" x2="183.772" y2="39.5035" gradientUnits="userSpaceOnUse">
<stop stop-color="#C6942C"/>
<stop offset="1" stop-color="#C99209"/>
</linearGradient>
<linearGradient id="paint10_linear_79_617" x1="-5.22827" y1="39.5034" x2="183.772" y2="39.5034" gradientUnits="userSpaceOnUse">
<stop stop-color="#C6942C"/>
<stop offset="1" stop-color="#C99209"/>
</linearGradient>
<linearGradient id="paint11_linear_79_617" x1="-5.2283" y1="39.5035" x2="183.772" y2="39.5035" gradientUnits="userSpaceOnUse">
<stop stop-color="#C6942C"/>
<stop offset="1" stop-color="#C99209"/>
</linearGradient>
<linearGradient id="paint12_linear_79_617" x1="-5.22826" y1="39.5034" x2="183.772" y2="39.5034" gradientUnits="userSpaceOnUse">
<stop stop-color="#C6942C"/>
<stop offset="1" stop-color="#C99209"/>
</linearGradient>
<linearGradient id="paint13_linear_79_617" x1="-5.22836" y1="39.5035" x2="183.772" y2="39.5035" gradientUnits="userSpaceOnUse">
<stop stop-color="#C6942C"/>
<stop offset="1" stop-color="#C99209"/>
</linearGradient>
<linearGradient id="paint14_linear_79_617" x1="-5.22836" y1="39.5035" x2="183.772" y2="39.5035" gradientUnits="userSpaceOnUse">
<stop stop-color="#C6942C"/>
<stop offset="1" stop-color="#C99209"/>
</linearGradient>
<linearGradient id="paint15_linear_79_617" x1="-5.22838" y1="39.5035" x2="183.772" y2="39.5035" gradientUnits="userSpaceOnUse">
<stop stop-color="#C6942C"/>
<stop offset="1" stop-color="#C99209"/>
</linearGradient>
<linearGradient id="paint16_linear_79_617" x1="-5.22847" y1="39.5034" x2="183.772" y2="39.5034" gradientUnits="userSpaceOnUse">
<stop stop-color="#C6942C"/>
<stop offset="1" stop-color="#C99209"/>
</linearGradient>
<linearGradient id="paint17_linear_79_617" x1="-5.22834" y1="39.5034" x2="183.772" y2="39.5034" gradientUnits="userSpaceOnUse">
<stop stop-color="#C6942C"/>
<stop offset="1" stop-color="#C99209"/>
</linearGradient>
</defs>
</svg>
